P1 51 51 000000000000000000000000000000000000000000000000000000000000000000000000000000000000000000000000000000000000000000000000000000000000000000000000000000000000000000000000000000000000000000000000000000000000000000000000000000000000000000000000000000000000000000000000000000000000111111111000000000000000000000000000000000000001111100000001111100000000000000000000000000000000111000000000000000111000000000000000000000000000001100000000000000000001100000000000000000000000000111000000000000000000000111000000000000000000000001100000000000000000000000001100000000000000000000011000000000000000000000000000110000000000000000000110000000000000000000000000000011000000000000000000100000000000000000000000000000001000000000000000001100000000000000000000000000000001100000000000000011000000000000000000000000000000000110000000000000010000000000000000000000000000000000010000000000000110000000000000000000000000000000000011000000000000100000000000000000000000000000000000001000000000000100000000000000000000000000000000000001000000000000100000000000000000000000000000000000001000000000001100000000000000000000000000000000000001100000000001000000000000000000000000000000000000000100000000001000000000000000000000000000000000000000100000000001000000000000000000000000000000000000000100000000001000000000000000000000000000000000000000100000000001000000000000000000000000000000000000000100000000001000000000000000000000000000000000000000100000000001000000000000000000000000000000000000000100000000001100000000000000000000000000000000000001100000000000100000000000000000000000000000000000001000000000000100000000000000000000000000000000000001000000000000100000000000000000000000000000000000001000000000000110000000000000000000000000000000000011000000000000010000000000000000000000000000000000010000000000000011000000000000000000000000000000000110000000000000001100000000000000000000000000000001100000000000000000100000000000000000000000000000001000000000000000000110000000000000000000000000000011000000000000000000011000000000000000000000000000110000000000000000000001100000000000000000000000001100000000000000000000000111000000000000000000000111000000000000000000000000001100000000000000000001100000000000000000000000000000111000000000000000111000000000000000000000000000000001111100000001111100000000000000000000000000000000000000111111111000000000000000000000000000000000000000000000000000000000000000000000000000000000000000000000000000000000000000000000000000000000000000000000000000000000000000000000000000000000000000000000000000000000000000000000000000000000000000000000000000000000000000000000000000000000000